solid OpenSCAD_Model
  facet normal 1 -0 0
    outer loop
      vertex 1.5875 3.175 12.7
      vertex 1.5875 209.55 6.35
      vertex 1.5875 209.55 12.7
    endloop
  endfacet
  facet normal 1 0 0
    outer loop
      vertex 1.5875 209.55 6.35
      vertex 1.5875 3.175 12.7
      vertex 1.5875 3.175 6.35
    endloop
  endfacet
  facet normal -1 0 0
    outer loop
      vertex 141.288 3.175 6.35
      vertex 141.288 209.55 12.7
      vertex 141.288 209.55 6.35
    endloop
  endfacet
  facet normal -1 -0 0
    outer loop
      vertex 141.288 209.55 12.7
      vertex 141.288 3.175 6.35
      vertex 141.288 3.175 12.7
    endloop
  endfacet
  facet normal 0 0 1
    outer loop
      vertex 141.288 209.55 6.35
      vertex 138.113 206.375 6.35
      vertex 141.288 3.175 6.35
    endloop
  endfacet
  facet normal 0 0 1
    outer loop
      vertex 141.288 209.55 6.35
      vertex 4.7625 206.375 6.35
      vertex 138.113 206.375 6.35
    endloop
  endfacet
  facet normal 0 0 1
    outer loop
      vertex 4.7625 206.375 6.35
      vertex 1.5875 209.55 6.35
      vertex 4.7625 6.35 6.35
    endloop
  endfacet
  facet normal -0 0 1
    outer loop
      vertex 1.5875 209.55 6.35
      vertex 4.7625 206.375 6.35
      vertex 141.288 209.55 6.35
    endloop
  endfacet
  facet normal -0 0 1
    outer loop
      vertex 138.113 6.35 6.35
      vertex 141.288 3.175 6.35
      vertex 138.113 206.375 6.35
    endloop
  endfacet
  facet normal -0 0 1
    outer loop
      vertex 4.7625 6.35 6.35
      vertex 141.288 3.175 6.35
      vertex 138.113 6.35 6.35
    endloop
  endfacet
  facet normal 0 0 1
    outer loop
      vertex 4.7625 6.35 6.35
      vertex 1.5875 3.175 6.35
      vertex 141.288 3.175 6.35
    endloop
  endfacet
  facet normal 0 0 1
    outer loop
      vertex 1.5875 3.175 6.35
      vertex 4.7625 6.35 6.35
      vertex 1.5875 209.55 6.35
    endloop
  endfacet
  facet normal 0 1 -0
    outer loop
      vertex 141.288 3.175 6.35
      vertex 1.5875 3.175 12.7
      vertex 141.288 3.175 12.7
    endloop
  endfacet
  facet normal 0 1 0
    outer loop
      vertex 1.5875 3.175 12.7
      vertex 141.288 3.175 6.35
      vertex 1.5875 3.175 6.35
    endloop
  endfacet
  facet normal 0 -1 0
    outer loop
      vertex 1.5875 209.55 6.35
      vertex 141.288 209.55 12.7
      vertex 1.5875 209.55 12.7
    endloop
  endfacet
  facet normal 0 -1 -0
    outer loop
      vertex 141.288 209.55 12.7
      vertex 1.5875 209.55 6.35
      vertex 141.288 209.55 6.35
    endloop
  endfacet
  facet normal -1 0 0
    outer loop
      vertex 4.7625 6.35 6.35
      vertex 4.7625 206.375 12.7
      vertex 4.7625 206.375 6.35
    endloop
  endfacet
  facet normal -1 -0 0
    outer loop
      vertex 4.7625 206.375 12.7
      vertex 4.7625 6.35 6.35
      vertex 4.7625 6.35 12.7
    endloop
  endfacet
  facet normal 0 0 1
    outer loop
      vertex 138.113 206.375 12.7
      vertex 136.525 139.7 12.7
      vertex 138.113 6.35 12.7
    endloop
  endfacet
  facet normal 0 0 1
    outer loop
      vertex 138.113 206.375 12.7
      vertex 90.4875 174.625 12.7
      vertex 136.525 139.7 12.7
    endloop
  endfacet
  facet normal 0 0 1
    outer loop
      vertex 138.113 206.375 12.7
      vertex 90.1215 178.341 12.7
      vertex 90.4875 174.625 12.7
    endloop
  endfacet
  facet normal 0 0 1
    outer loop
      vertex 138.113 206.375 12.7
      vertex 89.0374 181.915 12.7
      vertex 90.1215 178.341 12.7
    endloop
  endfacet
  facet normal 0 0 1
    outer loop
      vertex 138.113 206.375 12.7
      vertex 87.277 185.209 12.7
      vertex 89.0374 181.915 12.7
    endloop
  endfacet
  facet normal 0 0 1
    outer loop
      vertex 138.113 206.375 12.7
      vertex 84.9079 188.095 12.7
      vertex 87.277 185.209 12.7
    endloop
  endfacet
  facet normal 0 0 1
    outer loop
      vertex 138.113 206.375 12.7
      vertex 82.0211 190.464 12.7
      vertex 84.9079 188.095 12.7
    endloop
  endfacet
  facet normal 0 0 1
    outer loop
      vertex 138.113 206.375 12.7
      vertex 78.7276 192.225 12.7
      vertex 82.0211 190.464 12.7
    endloop
  endfacet
  facet normal 0 0 1
    outer loop
      vertex 138.113 206.375 12.7
      vertex 75.154 193.309 12.7
      vertex 78.7276 192.225 12.7
    endloop
  endfacet
  facet normal 0 0 1
    outer loop
      vertex 138.113 206.375 12.7
      vertex 71.4375 193.675 12.7
      vertex 75.154 193.309 12.7
    endloop
  endfacet
  facet normal -0 0 1
    outer loop
      vertex 4.7625 206.375 12.7
      vertex 71.4375 193.675 12.7
      vertex 138.113 206.375 12.7
    endloop
  endfacet
  facet normal 0 0 1
    outer loop
      vertex 4.7625 206.375 12.7
      vertex 52.3875 174.625 12.7
      vertex 52.7535 178.341 12.7
    endloop
  endfacet
  facet normal 0 0 1
    outer loop
      vertex 4.7625 206.375 12.7
      vertex 52.7535 178.341 12.7
      vertex 53.8376 181.915 12.7
    endloop
  endfacet
  facet normal 0 0 1
    outer loop
      vertex 4.7625 206.375 12.7
      vertex 53.8376 181.915 12.7
      vertex 55.598 185.209 12.7
    endloop
  endfacet
  facet normal 0 0 1
    outer loop
      vertex 4.7625 206.375 12.7
      vertex 55.598 185.209 12.7
      vertex 57.9671 188.095 12.7
    endloop
  endfacet
  facet normal 0 0 1
    outer loop
      vertex 4.7625 6.35 12.7
      vertex 6.35 139.7 12.7
      vertex 4.7625 206.375 12.7
    endloop
  endfacet
  facet normal 0 0 1
    outer loop
      vertex 52.3875 174.625 12.7
      vertex 4.7625 206.375 12.7
      vertex 6.35 139.7 12.7
    endloop
  endfacet
  facet normal 0 0 1
    outer loop
      vertex 60.8539 190.464 12.7
      vertex 4.7625 206.375 12.7
      vertex 57.9671 188.095 12.7
    endloop
  endfacet
  facet normal 0 0 1
    outer loop
      vertex 64.1474 192.225 12.7
      vertex 4.7625 206.375 12.7
      vertex 60.8539 190.464 12.7
    endloop
  endfacet
  facet normal 0 0 1
    outer loop
      vertex 67.721 193.309 12.7
      vertex 4.7625 206.375 12.7
      vertex 64.1474 192.225 12.7
    endloop
  endfacet
  facet normal 0 0 1
    outer loop
      vertex 71.4375 193.675 12.7
      vertex 4.7625 206.375 12.7
      vertex 67.721 193.309 12.7
    endloop
  endfacet
  facet normal -0 0 1
    outer loop
      vertex 136.525 9.525 12.7
      vertex 138.113 6.35 12.7
      vertex 136.525 139.7 12.7
    endloop
  endfacet
  facet normal -0 0 1
    outer loop
      vertex 6.35 9.525 12.7
      vertex 138.113 6.35 12.7
      vertex 136.525 9.525 12.7
    endloop
  endfacet
  facet normal 0 0 1
    outer loop
      vertex 6.35 9.525 12.7
      vertex 4.7625 6.35 12.7
      vertex 138.113 6.35 12.7
    endloop
  endfacet
  facet normal 0 0 1
    outer loop
      vertex 6.35 139.7 12.7
      vertex 4.7625 6.35 12.7
      vertex 6.35 9.525 12.7
    endloop
  endfacet
  facet normal -0 0 1
    outer loop
      vertex 90.1215 170.909 12.7
      vertex 136.525 139.7 12.7
      vertex 90.4875 174.625 12.7
    endloop
  endfacet
  facet normal -0 0 1
    outer loop
      vertex 89.0374 167.335 12.7
      vertex 136.525 139.7 12.7
      vertex 90.1215 170.909 12.7
    endloop
  endfacet
  facet normal -0 0 1
    outer loop
      vertex 87.277 164.041 12.7
      vertex 136.525 139.7 12.7
      vertex 89.0374 167.335 12.7
    endloop
  endfacet
  facet normal -0 0 1
    outer loop
      vertex 84.9079 161.155 12.7
      vertex 136.525 139.7 12.7
      vertex 87.277 164.041 12.7
    endloop
  endfacet
  facet normal -0 0 1
    outer loop
      vertex 82.0211 158.786 12.7
      vertex 136.525 139.7 12.7
      vertex 84.9079 161.155 12.7
    endloop
  endfacet
  facet normal -0 0 1
    outer loop
      vertex 78.7276 157.025 12.7
      vertex 136.525 139.7 12.7
      vertex 82.0211 158.786 12.7
    endloop
  endfacet
  facet normal -0 0 1
    outer loop
      vertex 75.154 155.941 12.7
      vertex 136.525 139.7 12.7
      vertex 78.7276 157.025 12.7
    endloop
  endfacet
  facet normal -0 0 1
    outer loop
      vertex 71.4375 155.575 12.7
      vertex 136.525 139.7 12.7
      vertex 75.154 155.941 12.7
    endloop
  endfacet
  facet normal 0 0 1
    outer loop
      vertex 6.35 139.7 12.7
      vertex 71.4375 155.575 12.7
      vertex 67.721 155.941 12.7
    endloop
  endfacet
  facet normal 0 0 1
    outer loop
      vertex 71.4375 155.575 12.7
      vertex 6.35 139.7 12.7
      vertex 136.525 139.7 12.7
    endloop
  endfacet
  facet normal 0 0 1
    outer loop
      vertex 64.1474 157.025 12.7
      vertex 6.35 139.7 12.7
      vertex 67.721 155.941 12.7
    endloop
  endfacet
  facet normal 0 0 1
    outer loop
      vertex 60.8539 158.786 12.7
      vertex 6.35 139.7 12.7
      vertex 64.1474 157.025 12.7
    endloop
  endfacet
  facet normal 0 0 1
    outer loop
      vertex 57.9671 161.155 12.7
      vertex 6.35 139.7 12.7
      vertex 60.8539 158.786 12.7
    endloop
  endfacet
  facet normal 0 0 1
    outer loop
      vertex 55.598 164.041 12.7
      vertex 6.35 139.7 12.7
      vertex 57.9671 161.155 12.7
    endloop
  endfacet
  facet normal 0 0 1
    outer loop
      vertex 53.8376 167.335 12.7
      vertex 6.35 139.7 12.7
      vertex 55.598 164.041 12.7
    endloop
  endfacet
  facet normal 0 0 1
    outer loop
      vertex 52.7535 170.909 12.7
      vertex 6.35 139.7 12.7
      vertex 53.8376 167.335 12.7
    endloop
  endfacet
  facet normal 0 0 1
    outer loop
      vertex 6.35 139.7 12.7
      vertex 52.7535 170.909 12.7
      vertex 52.3875 174.625 12.7
    endloop
  endfacet
  facet normal 1 -0 0
    outer loop
      vertex 138.113 6.35 12.7
      vertex 138.113 206.375 6.35
      vertex 138.113 206.375 12.7
    endloop
  endfacet
  facet normal 1 0 0
    outer loop
      vertex 138.113 206.375 6.35
      vertex 138.113 6.35 12.7
      vertex 138.113 6.35 6.35
    endloop
  endfacet
  facet normal 0 1 -0
    outer loop
      vertex 138.113 206.375 6.35
      vertex 4.7625 206.375 12.7
      vertex 138.113 206.375 12.7
    endloop
  endfacet
  facet normal 0 1 0
    outer loop
      vertex 4.7625 206.375 12.7
      vertex 138.113 206.375 6.35
      vertex 4.7625 206.375 6.35
    endloop
  endfacet
  facet normal 0 -1 0
    outer loop
      vertex 4.7625 6.35 6.35
      vertex 138.113 6.35 12.7
      vertex 4.7625 6.35 12.7
    endloop
  endfacet
  facet normal 0 -1 -0
    outer loop
      vertex 138.113 6.35 12.7
      vertex 4.7625 6.35 6.35
      vertex 138.113 6.35 6.35
    endloop
  endfacet
  facet normal -1 0 0
    outer loop
      vertex 0 0 0
      vertex 0 212.725 12.7
      vertex 0 212.725 0
    endloop
  endfacet
  facet normal -1 -0 0
    outer loop
      vertex 0 212.725 12.7
      vertex 0 0 0
      vertex 0 0 12.7
    endloop
  endfacet
  facet normal 0 0 1
    outer loop
      vertex 142.875 212.725 12.7
      vertex 141.288 209.55 12.7
      vertex 142.875 0 12.7
    endloop
  endfacet
  facet normal 0 0 1
    outer loop
      vertex 142.875 212.725 12.7
      vertex 1.5875 209.55 12.7
      vertex 141.288 209.55 12.7
    endloop
  endfacet
  facet normal 0 0 1
    outer loop
      vertex 1.5875 209.55 12.7
      vertex 0 212.725 12.7
      vertex 1.5875 3.175 12.7
    endloop
  endfacet
  facet normal -0 0 1
    outer loop
      vertex 0 212.725 12.7
      vertex 1.5875 209.55 12.7
      vertex 142.875 212.725 12.7
    endloop
  endfacet
  facet normal -0 0 1
    outer loop
      vertex 141.288 3.175 12.7
      vertex 142.875 0 12.7
      vertex 141.288 209.55 12.7
    endloop
  endfacet
  facet normal -0 0 1
    outer loop
      vertex 1.5875 3.175 12.7
      vertex 142.875 0 12.7
      vertex 141.288 3.175 12.7
    endloop
  endfacet
  facet normal 0 0 1
    outer loop
      vertex 1.5875 3.175 12.7
      vertex 0 0 12.7
      vertex 142.875 0 12.7
    endloop
  endfacet
  facet normal 0 0 1
    outer loop
      vertex 0 0 12.7
      vertex 1.5875 3.175 12.7
      vertex 0 212.725 12.7
    endloop
  endfacet
  facet normal 1 -0 0
    outer loop
      vertex 142.875 0 12.7
      vertex 142.875 212.725 0
      vertex 142.875 212.725 12.7
    endloop
  endfacet
  facet normal 1 0 0
    outer loop
      vertex 142.875 212.725 0
      vertex 142.875 0 12.7
      vertex 142.875 0 0
    endloop
  endfacet
  facet normal 0 0 -1
    outer loop
      vertex 136.525 139.7 0
      vertex 90.1215 170.909 0
      vertex 90.4875 174.625 0
    endloop
  endfacet
  facet normal 0 0 -1
    outer loop
      vertex 136.525 139.7 0
      vertex 89.0374 167.335 0
      vertex 90.1215 170.909 0
    endloop
  endfacet
  facet normal 0 0 -1
    outer loop
      vertex 136.525 139.7 0
      vertex 87.277 164.041 0
      vertex 89.0374 167.335 0
    endloop
  endfacet
  facet normal 0 0 -1
    outer loop
      vertex 136.525 139.7 0
      vertex 84.9079 161.155 0
      vertex 87.277 164.041 0
    endloop
  endfacet
  facet normal 0 0 -1
    outer loop
      vertex 136.525 139.7 0
      vertex 82.0211 158.786 0
      vertex 84.9079 161.155 0
    endloop
  endfacet
  facet normal 0 0 -1
    outer loop
      vertex 136.525 139.7 0
      vertex 78.7276 157.025 0
      vertex 82.0211 158.786 0
    endloop
  endfacet
  facet normal 0 0 -1
    outer loop
      vertex 136.525 139.7 0
      vertex 75.154 155.941 0
      vertex 78.7276 157.025 0
    endloop
  endfacet
  facet normal 0 0 -1
    outer loop
      vertex 136.525 139.7 0
      vertex 71.4375 155.575 0
      vertex 75.154 155.941 0
    endloop
  endfacet
  facet normal 0 0 -1
    outer loop
      vertex 6.35 139.7 0
      vertex 71.4375 155.575 0
      vertex 136.525 139.7 0
    endloop
  endfacet
  facet normal -0 0 -1
    outer loop
      vertex 52.7535 170.909 0
      vertex 6.35 139.7 0
      vertex 52.3875 174.625 0
    endloop
  endfacet
  facet normal -0 0 -1
    outer loop
      vertex 53.8376 167.335 0
      vertex 6.35 139.7 0
      vertex 52.7535 170.909 0
    endloop
  endfacet
  facet normal -0 0 -1
    outer loop
      vertex 55.598 164.041 0
      vertex 6.35 139.7 0
      vertex 53.8376 167.335 0
    endloop
  endfacet
  facet normal -0 0 -1
    outer loop
      vertex 57.9671 161.155 0
      vertex 6.35 139.7 0
      vertex 55.598 164.041 0
    endloop
  endfacet
  facet normal -0 0 -1
    outer loop
      vertex 60.8539 158.786 0
      vertex 6.35 139.7 0
      vertex 57.9671 161.155 0
    endloop
  endfacet
  facet normal -0 0 -1
    outer loop
      vertex 64.1474 157.025 0
      vertex 6.35 139.7 0
      vertex 60.8539 158.786 0
    endloop
  endfacet
  facet normal -0 0 -1
    outer loop
      vertex 67.721 155.941 0
      vertex 6.35 139.7 0
      vertex 64.1474 157.025 0
    endloop
  endfacet
  facet normal -0 0 -1
    outer loop
      vertex 71.4375 155.575 0
      vertex 6.35 139.7 0
      vertex 67.721 155.941 0
    endloop
  endfacet
  facet normal 0 0 -1
    outer loop
      vertex 136.525 139.7 0
      vertex 142.875 0 0
      vertex 136.525 9.525 0
    endloop
  endfacet
  facet normal 0 0 -1
    outer loop
      vertex 142.875 0 0
      vertex 6.35 9.525 0
      vertex 136.525 9.525 0
    endloop
  endfacet
  facet normal -0 0 -1
    outer loop
      vertex 6.35 9.525 0
      vertex 0 0 0
      vertex 6.35 139.7 0
    endloop
  endfacet
  facet normal 0 0 -1
    outer loop
      vertex 0 0 0
      vertex 6.35 9.525 0
      vertex 142.875 0 0
    endloop
  endfacet
  facet normal 0 0 -1
    outer loop
      vertex 142.875 0 0
      vertex 136.525 139.7 0
      vertex 142.875 212.725 0
    endloop
  endfacet
  facet normal 0 0 -1
    outer loop
      vertex 90.4875 174.625 0
      vertex 142.875 212.725 0
      vertex 136.525 139.7 0
    endloop
  endfacet
  facet normal 0 0 -1
    outer loop
      vertex 90.1215 178.341 0
      vertex 142.875 212.725 0
      vertex 90.4875 174.625 0
    endloop
  endfacet
  facet normal 0 0 -1
    outer loop
      vertex 89.0374 181.915 0
      vertex 142.875 212.725 0
      vertex 90.1215 178.341 0
    endloop
  endfacet
  facet normal 0 0 -1
    outer loop
      vertex 87.277 185.209 0
      vertex 142.875 212.725 0
      vertex 89.0374 181.915 0
    endloop
  endfacet
  facet normal 0 0 -1
    outer loop
      vertex 84.9079 188.095 0
      vertex 142.875 212.725 0
      vertex 87.277 185.209 0
    endloop
  endfacet
  facet normal 0 0 -1
    outer loop
      vertex 82.0211 190.464 0
      vertex 142.875 212.725 0
      vertex 84.9079 188.095 0
    endloop
  endfacet
  facet normal 0 0 -1
    outer loop
      vertex 78.7276 192.225 0
      vertex 142.875 212.725 0
      vertex 82.0211 190.464 0
    endloop
  endfacet
  facet normal 0 0 -1
    outer loop
      vertex 75.154 193.309 0
      vertex 142.875 212.725 0
      vertex 78.7276 192.225 0
    endloop
  endfacet
  facet normal 0 0 -1
    outer loop
      vertex 71.4375 193.675 0
      vertex 142.875 212.725 0
      vertex 75.154 193.309 0
    endloop
  endfacet
  facet normal 0 0 -1
    outer loop
      vertex 0 212.725 0
      vertex 71.4375 193.675 0
      vertex 67.721 193.309 0
    endloop
  endfacet
  facet normal 0 0 -1
    outer loop
      vertex 0 212.725 0
      vertex 52.3875 174.625 0
      vertex 6.35 139.7 0
    endloop
  endfacet
  facet normal 0 0 -1
    outer loop
      vertex 52.3875 174.625 0
      vertex 0 212.725 0
      vertex 52.7535 178.341 0
    endloop
  endfacet
  facet normal 0 0 -1
    outer loop
      vertex 52.7535 178.341 0
      vertex 0 212.725 0
      vertex 53.8376 181.915 0
    endloop
  endfacet
  facet normal 0 0 -1
    outer loop
      vertex 53.8376 181.915 0
      vertex 0 212.725 0
      vertex 55.598 185.209 0
    endloop
  endfacet
  facet normal 0 0 -1
    outer loop
      vertex 71.4375 193.675 0
      vertex 0 212.725 0
      vertex 142.875 212.725 0
    endloop
  endfacet
  facet normal 0 0 -1
    outer loop
      vertex 64.1474 192.225 0
      vertex 0 212.725 0
      vertex 67.721 193.309 0
    endloop
  endfacet
  facet normal 0 0 -1
    outer loop
      vertex 60.8539 190.464 0
      vertex 0 212.725 0
      vertex 64.1474 192.225 0
    endloop
  endfacet
  facet normal 0 0 -1
    outer loop
      vertex 57.9671 188.095 0
      vertex 0 212.725 0
      vertex 60.8539 190.464 0
    endloop
  endfacet
  facet normal 0 0 -1
    outer loop
      vertex 55.598 185.209 0
      vertex 0 212.725 0
      vertex 57.9671 188.095 0
    endloop
  endfacet
  facet normal 0 0 -1
    outer loop
      vertex 0 212.725 0
      vertex 6.35 139.7 0
      vertex 0 0 0
    endloop
  endfacet
  facet normal 0 -1 0
    outer loop
      vertex 0 0 0
      vertex 142.875 0 12.7
      vertex 0 0 12.7
    endloop
  endfacet
  facet normal 0 -1 -0
    outer loop
      vertex 142.875 0 12.7
      vertex 0 0 0
      vertex 142.875 0 0
    endloop
  endfacet
  facet normal 0 1 -0
    outer loop
      vertex 142.875 212.725 0
      vertex 0 212.725 12.7
      vertex 142.875 212.725 12.7
    endloop
  endfacet
  facet normal 0 1 0
    outer loop
      vertex 0 212.725 12.7
      vertex 142.875 212.725 0
      vertex 0 212.725 0
    endloop
  endfacet
  facet normal 1 -0 0
    outer loop
      vertex 6.35 9.525 12.7
      vertex 6.35 139.7 0
      vertex 6.35 139.7 12.7
    endloop
  endfacet
  facet normal 1 0 0
    outer loop
      vertex 6.35 139.7 0
      vertex 6.35 9.525 12.7
      vertex 6.35 9.525 0
    endloop
  endfacet
  facet normal -1 0 0
    outer loop
      vertex 136.525 9.525 0
      vertex 136.525 139.7 12.7
      vertex 136.525 139.7 0
    endloop
  endfacet
  facet normal -1 -0 0
    outer loop
      vertex 136.525 139.7 12.7
      vertex 136.525 9.525 0
      vertex 136.525 9.525 12.7
    endloop
  endfacet
  facet normal 0 1 -0
    outer loop
      vertex 136.525 9.525 0
      vertex 6.35 9.525 12.7
      vertex 136.525 9.525 12.7
    endloop
  endfacet
  facet normal 0 1 0
    outer loop
      vertex 6.35 9.525 12.7
      vertex 136.525 9.525 0
      vertex 6.35 9.525 0
    endloop
  endfacet
  facet normal 0 -1 0
    outer loop
      vertex 6.35 139.7 0
      vertex 136.525 139.7 12.7
      vertex 6.35 139.7 12.7
    endloop
  endfacet
  facet normal 0 -1 -0
    outer loop
      vertex 136.525 139.7 12.7
      vertex 6.35 139.7 0
      vertex 136.525 139.7 0
    endloop
  endfacet
  facet normal -0.471396 -0.881922 0
    outer loop
      vertex 78.7276 192.225 0
      vertex 82.0211 190.464 12.7
      vertex 78.7276 192.225 12.7
    endloop
  endfacet
  facet normal -0.471396 -0.881922 -0
    outer loop
      vertex 82.0211 190.464 12.7
      vertex 78.7276 192.225 0
      vertex 82.0211 190.464 0
    endloop
  endfacet
  facet normal -0.995185 0.0980177 0
    outer loop
      vertex 90.1215 170.909 0
      vertex 90.4875 174.625 12.7
      vertex 90.4875 174.625 0
    endloop
  endfacet
  facet normal -0.995185 0.0980177 0
    outer loop
      vertex 90.4875 174.625 12.7
      vertex 90.1215 170.909 0
      vertex 90.1215 170.909 12.7
    endloop
  endfacet
  facet normal 0.0980179 0.995185 -0
    outer loop
      vertex 71.4375 155.575 0
      vertex 67.721 155.941 12.7
      vertex 71.4375 155.575 12.7
    endloop
  endfacet
  facet normal 0.0980179 0.995185 0
    outer loop
      vertex 67.721 155.941 12.7
      vertex 71.4375 155.575 0
      vertex 67.721 155.941 0
    endloop
  endfacet
  facet normal 0.471396 -0.881921 0
    outer loop
      vertex 60.8539 190.464 0
      vertex 64.1474 192.225 12.7
      vertex 60.8539 190.464 12.7
    endloop
  endfacet
  facet normal 0.471396 -0.881921 0
    outer loop
      vertex 64.1474 192.225 12.7
      vertex 60.8539 190.464 0
      vertex 64.1474 192.225 0
    endloop
  endfacet
  facet normal 0.95694 -0.290285 0
    outer loop
      vertex 52.7535 178.341 12.7
      vertex 53.8376 181.915 0
      vertex 53.8376 181.915 12.7
    endloop
  endfacet
  facet normal 0.95694 -0.290285 0
    outer loop
      vertex 53.8376 181.915 0
      vertex 52.7535 178.341 12.7
      vertex 52.7535 178.341 0
    endloop
  endfacet
  facet normal -0.77301 0.634394 0
    outer loop
      vertex 84.9079 161.155 0
      vertex 87.277 164.041 12.7
      vertex 87.277 164.041 0
    endloop
  endfacet
  facet normal -0.77301 0.634394 0
    outer loop
      vertex 87.277 164.041 12.7
      vertex 84.9079 161.155 0
      vertex 84.9079 161.155 12.7
    endloop
  endfacet
  facet normal -0.881921 -0.471397 0
    outer loop
      vertex 89.0374 181.915 0
      vertex 87.277 185.209 12.7
      vertex 87.277 185.209 0
    endloop
  endfacet
  facet normal -0.881921 -0.471397 0
    outer loop
      vertex 87.277 185.209 12.7
      vertex 89.0374 181.915 0
      vertex 89.0374 181.915 12.7
    endloop
  endfacet
  facet normal -0.77301 -0.634394 0
    outer loop
      vertex 87.277 185.209 0
      vertex 84.9079 188.095 12.7
      vertex 84.9079 188.095 0
    endloop
  endfacet
  facet normal -0.77301 -0.634394 0
    outer loop
      vertex 84.9079 188.095 12.7
      vertex 87.277 185.209 0
      vertex 87.277 185.209 12.7
    endloop
  endfacet
  facet normal -0.634393 -0.773011 0
    outer loop
      vertex 82.0211 190.464 0
      vertex 84.9079 188.095 12.7
      vertex 82.0211 190.464 12.7
    endloop
  endfacet
  facet normal -0.634393 -0.773011 -0
    outer loop
      vertex 84.9079 188.095 12.7
      vertex 82.0211 190.464 0
      vertex 84.9079 188.095 0
    endloop
  endfacet
  facet normal -0.290286 -0.95694 0
    outer loop
      vertex 75.154 193.309 0
      vertex 78.7276 192.225 12.7
      vertex 75.154 193.309 12.7
    endloop
  endfacet
  facet normal -0.290286 -0.95694 -0
    outer loop
      vertex 78.7276 192.225 12.7
      vertex 75.154 193.309 0
      vertex 78.7276 192.225 0
    endloop
  endfacet
  facet normal 0.0980179 -0.995185 0
    outer loop
      vertex 67.721 193.309 0
      vertex 71.4375 193.675 12.7
      vertex 67.721 193.309 12.7
    endloop
  endfacet
  facet normal 0.0980179 -0.995185 0
    outer loop
      vertex 71.4375 193.675 12.7
      vertex 67.721 193.309 0
      vertex 71.4375 193.675 0
    endloop
  endfacet
  facet normal -0.0980179 -0.995185 0
    outer loop
      vertex 71.4375 193.675 0
      vertex 75.154 193.309 12.7
      vertex 71.4375 193.675 12.7
    endloop
  endfacet
  facet normal -0.0980179 -0.995185 -0
    outer loop
      vertex 75.154 193.309 12.7
      vertex 71.4375 193.675 0
      vertex 75.154 193.309 0
    endloop
  endfacet
  facet normal 0.995185 0.0980167 0
    outer loop
      vertex 52.7535 170.909 12.7
      vertex 52.3875 174.625 0
      vertex 52.3875 174.625 12.7
    endloop
  endfacet
  facet normal 0.995185 0.0980167 0
    outer loop
      vertex 52.3875 174.625 0
      vertex 52.7535 170.909 12.7
      vertex 52.7535 170.909 0
    endloop
  endfacet
  facet normal 0.881922 -0.471396 0
    outer loop
      vertex 53.8376 181.915 12.7
      vertex 55.598 185.209 0
      vertex 55.598 185.209 12.7
    endloop
  endfacet
  facet normal 0.881922 -0.471396 0
    outer loop
      vertex 55.598 185.209 0
      vertex 53.8376 181.915 12.7
      vertex 53.8376 181.915 0
    endloop
  endfacet
  facet normal 0.634393 -0.77301 0
    outer loop
      vertex 57.9671 188.095 0
      vertex 60.8539 190.464 12.7
      vertex 57.9671 188.095 12.7
    endloop
  endfacet
  facet normal 0.634393 -0.77301 0
    outer loop
      vertex 60.8539 190.464 12.7
      vertex 57.9671 188.095 0
      vertex 60.8539 190.464 0
    endloop
  endfacet
  facet normal 0.290286 -0.95694 0
    outer loop
      vertex 64.1474 192.225 0
      vertex 67.721 193.309 12.7
      vertex 64.1474 192.225 12.7
    endloop
  endfacet
  facet normal 0.290286 -0.95694 0
    outer loop
      vertex 67.721 193.309 12.7
      vertex 64.1474 192.225 0
      vertex 67.721 193.309 0
    endloop
  endfacet
  facet normal 0.773009 -0.634394 0
    outer loop
      vertex 55.598 185.209 12.7
      vertex 57.9671 188.095 0
      vertex 57.9671 188.095 12.7
    endloop
  endfacet
  facet normal 0.773009 -0.634394 0
    outer loop
      vertex 57.9671 188.095 0
      vertex 55.598 185.209 12.7
      vertex 55.598 185.209 0
    endloop
  endfacet
  facet normal -0.995185 -0.0980177 0
    outer loop
      vertex 90.4875 174.625 0
      vertex 90.1215 178.341 12.7
      vertex 90.1215 178.341 0
    endloop
  endfacet
  facet normal -0.995185 -0.0980177 0
    outer loop
      vertex 90.1215 178.341 12.7
      vertex 90.4875 174.625 0
      vertex 90.4875 174.625 12.7
    endloop
  endfacet
  facet normal -0.290286 0.95694 0
    outer loop
      vertex 78.7276 157.025 0
      vertex 75.154 155.941 12.7
      vertex 78.7276 157.025 12.7
    endloop
  endfacet
  facet normal -0.290286 0.95694 0
    outer loop
      vertex 75.154 155.941 12.7
      vertex 78.7276 157.025 0
      vertex 75.154 155.941 0
    endloop
  endfacet
  facet normal -0.881921 0.471397 0
    outer loop
      vertex 87.277 164.041 0
      vertex 89.0374 167.335 12.7
      vertex 89.0374 167.335 0
    endloop
  endfacet
  facet normal -0.881921 0.471397 0
    outer loop
      vertex 89.0374 167.335 12.7
      vertex 87.277 164.041 0
      vertex 87.277 164.041 12.7
    endloop
  endfacet
  facet normal -0.95694 0.290285 0
    outer loop
      vertex 89.0374 167.335 0
      vertex 90.1215 170.909 12.7
      vertex 90.1215 170.909 0
    endloop
  endfacet
  facet normal -0.95694 0.290285 0
    outer loop
      vertex 90.1215 170.909 12.7
      vertex 89.0374 167.335 0
      vertex 89.0374 167.335 12.7
    endloop
  endfacet
  facet normal -0.471396 0.881922 0
    outer loop
      vertex 82.0211 158.786 0
      vertex 78.7276 157.025 12.7
      vertex 82.0211 158.786 12.7
    endloop
  endfacet
  facet normal -0.471396 0.881922 0
    outer loop
      vertex 78.7276 157.025 12.7
      vertex 82.0211 158.786 0
      vertex 78.7276 157.025 0
    endloop
  endfacet
  facet normal -0.634393 0.773011 0
    outer loop
      vertex 84.9079 161.155 0
      vertex 82.0211 158.786 12.7
      vertex 84.9079 161.155 12.7
    endloop
  endfacet
  facet normal -0.634393 0.773011 0
    outer loop
      vertex 82.0211 158.786 12.7
      vertex 84.9079 161.155 0
      vertex 82.0211 158.786 0
    endloop
  endfacet
  facet normal -0.0980179 0.995185 0
    outer loop
      vertex 75.154 155.941 0
      vertex 71.4375 155.575 12.7
      vertex 75.154 155.941 12.7
    endloop
  endfacet
  facet normal -0.0980179 0.995185 0
    outer loop
      vertex 71.4375 155.575 12.7
      vertex 75.154 155.941 0
      vertex 71.4375 155.575 0
    endloop
  endfacet
  facet normal 0.471396 0.881921 -0
    outer loop
      vertex 64.1474 157.025 0
      vertex 60.8539 158.786 12.7
      vertex 64.1474 157.025 12.7
    endloop
  endfacet
  facet normal 0.471396 0.881921 0
    outer loop
      vertex 60.8539 158.786 12.7
      vertex 64.1474 157.025 0
      vertex 60.8539 158.786 0
    endloop
  endfacet
  facet normal 0.773009 0.634394 0
    outer loop
      vertex 57.9671 161.155 12.7
      vertex 55.598 164.041 0
      vertex 55.598 164.041 12.7
    endloop
  endfacet
  facet normal 0.773009 0.634394 0
    outer loop
      vertex 55.598 164.041 0
      vertex 57.9671 161.155 12.7
      vertex 57.9671 161.155 0
    endloop
  endfacet
  facet normal 0.95694 0.290285 0
    outer loop
      vertex 53.8376 167.335 12.7
      vertex 52.7535 170.909 0
      vertex 52.7535 170.909 12.7
    endloop
  endfacet
  facet normal 0.95694 0.290285 0
    outer loop
      vertex 52.7535 170.909 0
      vertex 53.8376 167.335 12.7
      vertex 53.8376 167.335 0
    endloop
  endfacet
  facet normal 0.634393 0.77301 -0
    outer loop
      vertex 60.8539 158.786 0
      vertex 57.9671 161.155 12.7
      vertex 60.8539 158.786 12.7
    endloop
  endfacet
  facet normal 0.634393 0.77301 0
    outer loop
      vertex 57.9671 161.155 12.7
      vertex 60.8539 158.786 0
      vertex 57.9671 161.155 0
    endloop
  endfacet
  facet normal -0.95694 -0.290285 0
    outer loop
      vertex 90.1215 178.341 0
      vertex 89.0374 181.915 12.7
      vertex 89.0374 181.915 0
    endloop
  endfacet
  facet normal -0.95694 -0.290285 0
    outer loop
      vertex 89.0374 181.915 12.7
      vertex 90.1215 178.341 0
      vertex 90.1215 178.341 12.7
    endloop
  endfacet
  facet normal 0.995185 -0.0980167 0
    outer loop
      vertex 52.3875 174.625 12.7
      vertex 52.7535 178.341 0
      vertex 52.7535 178.341 12.7
    endloop
  endfacet
  facet normal 0.995185 -0.0980167 0
    outer loop
      vertex 52.7535 178.341 0
      vertex 52.3875 174.625 12.7
      vertex 52.3875 174.625 0
    endloop
  endfacet
  facet normal 0.290286 0.95694 -0
    outer loop
      vertex 67.721 155.941 0
      vertex 64.1474 157.025 12.7
      vertex 67.721 155.941 12.7
    endloop
  endfacet
  facet normal 0.290286 0.95694 0
    outer loop
      vertex 64.1474 157.025 12.7
      vertex 67.721 155.941 0
      vertex 64.1474 157.025 0
    endloop
  endfacet
  facet normal 0.881922 0.471396 0
    outer loop
      vertex 55.598 164.041 12.7
      vertex 53.8376 167.335 0
      vertex 53.8376 167.335 12.7
    endloop
  endfacet
  facet normal 0.881922 0.471396 0
    outer loop
      vertex 53.8376 167.335 0
      vertex 55.598 164.041 12.7
      vertex 55.598 164.041 0
    endloop
  endfacet
endsolid OpenSCAD_Model
